HIERARCHY
ROOT hip
{
  OFFSET -20.0142 82.9416 20.4455
  CHANNELS 6 Xposition Yposition Zposition Zrotation Xrotation Yrotation
  JOINT abdomen
  {
    OFFSET 0 20.6881 -0.73152
    CHANNELS 3 Zrotation Xrotation Yrotation
    JOINT chest
    {
      OFFSET 0 11.7043 -0.48768
      CHANNELS 3 Zrotation Xrotation Yrotation
      JOINT neck
      {
        OFFSET 0 22.1894 -2.19456
        CHANNELS 3 Zrotation Xrotation Yrotation
        JOINT head
        {
          OFFSET -0.24384 7.07133 1.2192
          CHANNELS 3 Zrotation Xrotation Yrotation
          JOINT leftEye
          {
            OFFSET 4.14528 8.04674 8.04672
            CHANNELS 3 Zrotation Xrotation Yrotation
            End Site
            {
              OFFSET 1 0 0
            }
          }
          JOINT rightEye
          {
            OFFSET -3.6576 8.04674 8.04672
            CHANNELS 3 Zrotation Xrotation Yrotation
            End Site
            {
              OFFSET 1 0 0
            }
          }
        }
      }
      JOINT rCollar
      {
        OFFSET -2.68224 19.2634 -4.8768
        CHANNELS 3 Zrotation Xrotation Yrotation
        JOINT rShldr
        {
          OFFSET -8.77824 -1.95073 1.46304
          CHANNELS 3 Zrotation Xrotation Yrotation
          JOINT rForeArm
          {
            OFFSET -28.1742 -1.7115 0.48768
            CHANNELS 3 Zrotation Xrotation Yrotation
            JOINT rHand
            {
              OFFSET -22.5879 0.773209 7.07136
              CHANNELS 3 Zrotation Xrotation Yrotation
              JOINT rThumb1
              {
                OFFSET -1.2192 -0.487915 3.41376
                CHANNELS 3 Zrotation Xrotation Yrotation
                JOINT rThumb2
                {
                  OFFSET -3.37035 -0.52449 3.41376
                  CHANNELS 3 Zrotation Xrotation Yrotation
                  End Site
                  {
                    OFFSET -1.78271 -1.18214 1.43049
                  }
                }
              }
              JOINT rIndex1
              {
                OFFSET -7.75947 0.938293 5.60832
                CHANNELS 3 Zrotation Xrotation Yrotation
                JOINT rIndex2
                {
                  OFFSET -2.54057 -0.884171 1.56538
                  CHANNELS 3 Zrotation Xrotation Yrotation
                  End Site
                  {
                    OFFSET -1.62519 -0.234802 1.16502
                  }
                }
              }
              JOINT rMid1
              {
                OFFSET -8.24714 1.18213 3.41376
                CHANNELS 3 Zrotation Xrotation Yrotation
                JOINT rMid2
                {
                  OFFSET -3.10165 -0.590103 1.0647
                  CHANNELS 3 Zrotation Xrotation Yrotation
                  End Site
                  {
                    OFFSET -2.48547 -0.328903 0.83742
                  }
                }
              }
              JOINT rRing1
              {
                OFFSET -8.82822 0.546677 1.51678
                CHANNELS 3 Zrotation Xrotation Yrotation
                JOINT rRing2
                {
                  OFFSET -2.60934 -0.819778 -0.0198488
                  CHANNELS 3 Zrotation Xrotation Yrotation
                  End Site
                  {
                    OFFSET -2.33842 -0.294052 0.168128
                  }
                }
              }
              JOINT rPinky1
              {
                OFFSET -8.27202 -0.0477905 -0.4584
                CHANNELS 3 Zrotation Xrotation Yrotation
                JOINT rPinky2
                {
                  OFFSET -1.82734 -0.647385 -0.700984
                  CHANNELS 3 Zrotation Xrotation Yrotation
                  End Site
                  {
                    OFFSET -1.69225 -0.51767 -0.607171
                  }
                }
              }
            }
          }
        }
      }
      JOINT lCollar
      {
        OFFSET 2.68224 19.2634 -4.8768
        CHANNELS 3 Zrotation Xrotation Yrotation
        JOINT lShldr
        {
          OFFSET 8.77824 -1.95073 1.46304
          CHANNELS 3 Zrotation Xrotation Yrotation
          JOINT lForeArm
          {
            OFFSET 28.1742 -1.7115 0.48768
            CHANNELS 3 Zrotation Xrotation Yrotation
            JOINT lHand
            {
              OFFSET 22.5879 0.773209 7.07136
              CHANNELS 3 Zrotation Xrotation Yrotation
              JOINT lThumb1
              {
                OFFSET 1.2192 -0.487915 3.41376
                CHANNELS 3 Zrotation Xrotation Yrotation
                JOINT lThumb2
                {
                  OFFSET 3.37035 -0.52449 3.41376
                  CHANNELS 3 Zrotation Xrotation Yrotation
                  End Site
                  {
                    OFFSET 1.78271 -1.18214 1.43049
                  }
                }
              }
              JOINT lIndex1
              {
                OFFSET 7.75947 0.938293 5.60832
                CHANNELS 3 Zrotation Xrotation Yrotation
                JOINT lIndex2
                {
                  OFFSET 2.54057 -0.884171 1.56538
                  CHANNELS 3 Zrotation Xrotation Yrotation
                  End Site
                  {
                    OFFSET 1.62519 -0.234802 1.16502
                  }
                }
              }
              JOINT lMid1
              {
                OFFSET 8.24714 1.18213 3.41376
                CHANNELS 3 Zrotation Xrotation Yrotation
                JOINT lMid2
                {
                  OFFSET 3.10165 -0.590103 1.0647
                  CHANNELS 3 Zrotation Xrotation Yrotation
                  End Site
                  {
                    OFFSET 2.48547 -0.328903 0.83742
                  }
                }
              }
              JOINT lRing1
              {
                OFFSET 8.82822 0.546677 1.51678
                CHANNELS 3 Zrotation Xrotation Yrotation
                JOINT lRing2
                {
                  OFFSET 2.60934 -0.819778 -0.0198488
                  CHANNELS 3 Zrotation Xrotation Yrotation
                  End Site
                  {
                    OFFSET 2.33842 -0.294052 0.168128
                  }
                }
              }
              JOINT lPinky1
              {
                OFFSET 8.27202 -0.0477905 -0.4584
                CHANNELS 3 Zrotation Xrotation Yrotation
                JOINT lPinky2
                {
                  OFFSET 1.82734 -0.647385 -0.700984
                  CHANNELS 3 Zrotation Xrotation Yrotation
                  End Site
                  {
                    OFFSET 1.69225 -0.51767 -0.607171
                  }
                }
              }
            }
          }
        }
      }
    }
  }
  JOINT rButtock
  {
    OFFSET -8.77824 4.35084 1.2192
    CHANNELS 3 Zrotation Xrotation Yrotation
    JOINT rThigh
    {
      OFFSET 0 -1.70687 -2.19456
      CHANNELS 3 Zrotation Xrotation Yrotation
      JOINT rShin
      {
        OFFSET 0 -36.8199 0.73152
        CHANNELS 3 Zrotation Xrotation Yrotation
        JOINT rFoot
        {
          OFFSET 0.73152 -45.1104 -5.12064
          CHANNELS 3 Zrotation Xrotation Yrotation
          End Site
          {
            OFFSET -1.1221 -3.69964 12.103
          }
        }
      }
    }
  }
  JOINT lButtock
  {
    OFFSET 8.77824 4.35084 1.2192
    CHANNELS 3 Zrotation Xrotation Yrotation
    JOINT lThigh
    {
      OFFSET 0 -1.70687 -2.19456
      CHANNELS 3 Zrotation Xrotation Yrotation
      JOINT lShin
      {
        OFFSET 0 -36.8199 0.73152
        CHANNELS 3 Zrotation Xrotation Yrotation
        JOINT lFoot
        {
          OFFSET -0.73152 -45.1104 -5.12064
          CHANNELS 3 Zrotation Xrotation Yrotation
          End Site
          {
            OFFSET 1.1221 -3.69964 12.103
          }
        }
      }
    }
  }
}
MOTION
Frames:	6
Frame Time:	0.00833333
35.8794 84.1089 -42.2061 1.1432 0.00299696 -0.0214201 -1.50367 -0.00293055 -0.0409972 -0.414509 0.000755491 -0.0717868 -1.2014e-014 7.95139e-016 -2.23633e-016 -3.66633e-014 9.54166e-015 -7.99798e-016 -0 0 0 -0 0 0 -6.21335e-015 3.41661e-017 0 -1.2491e-013 4.41053e-016 -2.5842e-015 -2.17451e-012 6.81036e-013 -5.40694e-014 -2.50371e-011 -5.36893e-013 -5.7568e-013 -5.9035e-011 3.15519e-013 -1.34219e-012 -1.01957e-010 5.47055e-013 -2.33214e-012 -5.90303e-011 3.1567e-013 -1.3581e-012 7.73091 5.47488 0.417314 -5.90357e-011 3.15372e-013 -1.34537e-012 2.90554 0.965183 0.102902 -5.90303e-011 3.15869e-013 -1.34776e-012 10.2786 0.731801 0.0259123 -5.9043e-011 3.19646e-013 -1.33901e-012 2.22167 -0.733487 -0.20892 -6.31048e-015 3.20307e-017 -1.98785e-016 -1.28018e-013 5.15598e-016 -4.37326e-015 -2.20005e-012 -6.32334e-013 -9.54166e-015 -2.50382e-011 7.74316e-013 -6.04305e-013 -5.90811e-011 3.09366e-013 -1.35492e-012 -1.02016e-010 5.34333e-013 -2.32817e-012 -5.90844e-011 3.10104e-013 -1.34219e-012 -7.73091 5.47488 -0.417314 -5.90814e-011 3.09607e-013 -1.35492e-012 -2.90554 0.965183 -0.102902 -5.90916e-011 3.10005e-013 -1.35253e-012 -10.2786 0.731801 -0.0259123 -5.9078e-011 3.12092e-013 -1.35492e-012 -2.22167 -0.733487 0.20892 -2.03217e-016 0 -3.88251e-019 -0.636455 -1.92306 -0.00650211 -0.0092043 -2.07856 -0.0759827 -0.50429 3.99732 0.139149 2.03217e-016 0 3.88251e-019 -1.6505 -6.46947 0.152906 -0.00229053 6.15686 -0.0670269 0.526437 0.308417 -0.0661611 
30.283 82.3822 -48.7305 -11.3458 20.6133 -25.7021 -0.0994298 -0.181487 1.09294 -0.0668195 -0.770912 0.237778 -1.35779 -0.261565 1.24851 1.35159 -0.538929 2.82608 -0 0 0 -0 0 0 -1.0074e-014 6.89905e-014 -2.22852e-014 19.7974 19.6786 1.21781 -20.5222 -18.3062 15.1492 0.00616491 -1.74225 -0.244448 -8.30611e-011 3.79313e-012 -5.36398e-012 -1.43494e-010 6.34988e-012 -9.30635e-012 -8.30556e-011 3.79208e-012 -5.37633e-012 7.73091 5.47488 0.417314 -8.30616e-011 3.79214e-012 -5.36542e-012 2.90554 0.965183 0.102902 -8.30544e-011 3.79247e-012 -5.36799e-012 10.2786 0.731801 0.0259123 -8.30655e-011 3.79544e-012 -5.35978e-012 2.22167 -0.733487 -0.20892 -1.01328e-014 6.89889e-014 -2.24716e-014 -22.0108 19.5029 -0.373128 18.6066 -16.2302 -15.1256 -0.0010021 -0.702696 0.0987306 -9.55016e-011 -7.6203e-011 6.80321e-011 -1.64962e-010 -1.31709e-010 1.17658e-010 -9.55033e-011 -7.62009e-011 6.80429e-011 -7.73091 5.47488 -0.417314 -9.5501e-011 -7.62011e-011 6.8033e-011 -2.90554 0.965183 -0.102902 -9.55085e-011 -7.62008e-011 6.8036e-011 -10.2786 0.731801 -0.0259123 -9.54976e-011 -7.61992e-011 6.80315e-011 -2.22167 -0.733487 0.20892 -2.03217e-016 0 -3.88251e-019 1.08047 -7.2394 1.42519 0.0238292 8.74999 0.107466 -0.752599 -2.00064 -1.78539 2.03217e-016 0 3.88251e-019 -0.298881 -10.261 0.373516 -0.00568219 14.937 -0.208124 0.844437 -3.95171 2.22241 
30.2828 82.3822 -48.7342 -5.63045 28.301 -59.3546 1.39232 -0.369947 2.29175 0.309578 -1.58522 0.565305 -2.7807 -0.537547 2.56853 2.83723 -1.10094 5.81428 -0 0 0 -0 0 0 -1.45594e-014 1.42489e-013 -4.68542e-014 39.5532 40.4483 3.10559 -30.5006 -33.1259 36.0813 -0.00350463 -3.57937 -0.502975 -1.1238e-010 1.38083e-011 -6.51318e-012 -1.94193e-010 2.34272e-011 -1.13298e-011 -1.12373e-010 1.38058e-011 -6.52173e-012 7.73091 5.47488 0.417314 -1.1238e-010 1.38064e-011 -6.51278e-012 2.90554 0.965183 0.102902 -1.12371e-010 1.38064e-011 -6.51552e-012 10.2786 0.731801 0.0259123 -1.1238e-010 1.38086e-011 -6.50781e-012 2.22167 -0.733487 -0.20892 -1.4576e-014 1.42488e-013 -4.70281e-014 -44.9233 40.1156 -0.94821 28.2669 -29.4393 -34.8541 0.000571106 -1.44247 0.202721 -1.38094e-010 -1.6294e-010 1.45881e-010 -2.38575e-010 -2.81631e-010 2.52284e-010 -1.38094e-010 -1.62937e-010 1.45889e-010 -7.73091 5.47488 -0.417314 -1.38093e-010 -1.62937e-010 1.45882e-010 -2.90554 0.965183 -0.102902 -1.38097e-010 -1.62937e-010 1.45886e-010 -10.2786 0.731801 -0.0259123 -1.38089e-010 -1.62935e-010 1.45879e-010 -2.22167 -0.733487 0.20892 -2.03217e-016 0 -3.88251e-019 3.19088 -12.8459 2.98968 -0.0204366 20.1974 0.318363 -1.4568 -8.32529 -3.85917 2.03217e-016 0 3.88251e-019 1.16254 -14.268 0.614359 0.042297 24.2189 -0.376333 1.55345 -8.43412 4.67995 
30.2856 82.3812 -48.7404 1.75004 16.8251 -82.9706 2.73024 -0.537774 3.36096 0.65359 -2.31401 0.857543 -4.03921 -0.783204 3.74583 4.21367 -1.60106 8.48119 -0 0 0 -0 0 0 -1.77954e-014 2.06903e-013 -6.68557e-014 54.9089 58.8765 6.66633 -29.9594 -37.6409 59.6351 -0.0262615 -5.22636 -0.736066 -1.31113e-010 1.07484e-011 -1.34076e-011 -2.26567e-010 1.79555e-011 -2.32548e-011 -1.31106e-010 1.07449e-011 -1.34128e-011 7.73091 5.47488 0.417314 -1.31113e-010 1.07457e-011 -1.34055e-011 2.90554 0.965183 0.102902 -1.31102e-010 1.07457e-011 -1.34084e-011 10.2786 0.731801 0.0259123 -1.3111e-010 1.0747e-011 -1.34013e-011 2.22167 -0.733487 -0.20892 -1.77774e-014 2.06903e-013 -6.70172e-014 -64.6842 58.4941 -2.01941 29.0623 -33.9299 -56.1033 0.00426305 -2.10806 0.29637 -1.68343e-010 -2.29228e-010 2.06806e-010 -2.90855e-010 -3.96197e-010 3.57632e-010 -1.68341e-010 -2.29223e-010 2.06813e-010 -7.73091 5.47488 -0.417314 -1.6834e-010 -2.29223e-010 2.06809e-010 -2.90554 0.965183 -0.102902 -1.68342e-010 -2.29223e-010 2.06813e-010 -10.2786 0.731801 -0.0259123 -1.68337e-010 -2.29222e-010 2.06804e-010 -2.22167 -0.733487 0.20892 -2.03217e-016 0 -3.88251e-019 5.34587 -17.8278 4.46949 -0.142692 30.406 0.545547 -2.48282 -13.9306 -5.80171 2.03217e-016 0 3.88251e-019 2.49633 -17.843 0.839126 0.140361 32.4964 -0.557247 2.51913 -12.3921 6.94629 
30.2889 82.38 -48.7425 3.15134 2.45414 -89.7016 3.66864 -0.654809 4.10602 0.899031 -2.82926 1.06095 -4.91078 -0.954462 4.56606 5.20682 -1.96123 10.3422 -0 0 0 -0 0 0 -1.7908e-014 2.48605e-013 -7.54388e-014 61.3027 71.5239 13.2639 -28.415 -34.6539 74.7763 -0.050475 -6.39835 -0.903024 -1.23383e-010 -2.49992e-011 -3.46649e-011 -2.13129e-010 -4.38885e-011 -5.99336e-011 -1.23376e-010 -2.50027e-011 -3.4668e-011 7.73091 5.47488 0.417314 -1.23384e-010 -2.50022e-011 -3.46617e-011 2.90554 0.965183 0.102902 -1.23372e-010 -2.50019e-011 -3.46649e-011 10.2786 0.731801 0.0259123 -1.23379e-010 -2.50011e-011 -3.46585e-011 2.22167 -0.733487 -0.20892 -1.78745e-014 2.48605e-013 -7.55879e-014 -77.1859 71.2943 -3.98393 28.1819 -31.8372 -70.1916 0.00822305 -2.58825 0.364004 -1.6773e-010 -2.44391e-010 2.25425e-010 -2.89798e-010 -4.22371e-010 3.89787e-010 -1.67729e-010 -2.44386e-010 2.25431e-010 -7.73091 5.47488 -0.417314 -1.67727e-010 -2.44384e-010 2.25428e-010 -2.90554 0.965183 -0.102902 -1.67728e-010 -2.44384e-010 2.25432e-010 -10.2786 0.731801 -0.0259123 -1.67724e-010 -2.44384e-010 2.25422e-010 -2.22167 -0.733487 0.20892 -2.03217e-016 0 -3.88251e-019 7.01456 -21.2897 5.57228 -0.289153 37.5185 0.744019 -3.43268 -17.8042 -7.23567 2.03217e-016 0 3.88251e-019 3.44495 -20.3392 1.0034 0.249059 38.2637 -0.711251 3.38798 -15.1154 8.59349 
30.2969 82.3787 -48.7463 3.31165 -3.67809 -90.0413 4.04104 -0.700069 4.39703 0.998346 -3.04628 1.13953 -5.2509 -1.0203 4.88677 5.61703 -2.14689 11.0748 -0 0 0 -0 0 0 -1.25739e-014 2.66219e-013 -6.65847e-014 60.6166 76.3313 18.994 -28.3235 -32.3163 79.6106 -0.0627363 -6.90771 -0.975904 -6.12227e-011 -1.54728e-010 -1.03246e-010 -1.05339e-010 -2.67983e-010 -1.78214e-010 -6.12168e-011 -1.5473e-010 -1.03249e-010 7.73091 5.47488 0.417314 -6.12239e-011 -1.54731e-010 -1.03242e-010 2.90554 0.965183 0.102902 -6.12119e-011 -1.54729e-010 -1.03246e-010 10.2786 0.731801 0.0259123 -6.12198e-011 -1.54729e-010 -1.03241e-010 2.22167 -0.733487 -0.20892 -1.25561e-014 2.66219e-013 -6.67179e-014 -81.1287 76.3101 -5.69779 28.1164 -29.9493 -74.9318 0.0103518 -2.81413 0.395842 -1.12576e-010 -1.58891e-010 1.69222e-010 -1.94499e-010 -2.74504e-010 2.92513e-010 -1.12579e-010 -1.58889e-010 1.69229e-010 -7.73091 5.47488 -0.417314 -1.12572e-010 -1.58884e-010 1.69226e-010 -2.90554 0.965183 -0.102902 -1.12576e-010 -1.58883e-010 1.69227e-010 -10.2786 0.731801 -0.0259123 -1.12571e-010 -1.58883e-010 1.69216e-010 -2.22167 -0.733487 0.20892 -2.03217e-016 0 -3.88251e-019 7.71216 -22.6536 6.02843 -0.364223 40.2976 0.834987 -3.85416 -19.3051 -7.80799 2.03217e-016 0 3.88251e-019 3.82204 -21.3263 1.06796 0.30366 40.5175 -0.780534 3.78014 -16.1647 9.27489 
